<?xml version="1.0" encoding="iso-8859-1"?>
<!-- Generator: Adobe Illustrator 16.0.0, SVG Export Plug-In . SVG Version: 6.00 Build 0)  -->
<!DOCTYPE svg PUBLIC "-//W3C//DTD SVG 1.1//EN" "http://www.w3.org/Graphics/SVG/1.1/DTD/svg11.dtd">
<svg version="1.1" id="Capa_1" xmlns="http://www.w3.org/2000/svg" xmlns:xlink="http://www.w3.org/1999/xlink" x="0px" y="0px"
	 width="32.027px" height="32.027px" viewBox="0 0 32.027 32.027" style="enable-background:new 0 0 32.027 32.027;"
	 xml:space="preserve">
<g>
	<g id="Arrow_x5F_Left_x5F_1">
		<g>
			<path d="M16.307,16.734c-0.189-0.189-0.293-0.44-0.293-0.707c0-0.27,0.104-0.52,0.291-0.705l8.537-8.494
				c0.755-0.755,1.172-1.76,1.172-2.828c0-1.067-0.416-2.071-1.172-2.828C24.086,0.416,23.082,0,22.014,0s-2.072,0.416-2.816,1.16
				L7.479,12.492c-0.944,0.944-1.465,2.199-1.465,3.535c0,1.336,0.521,2.592,1.479,3.551l10.083,9.671l1.606,1.606
				c0.756,0.756,1.761,1.172,2.828,1.172s2.073-0.416,2.828-1.172c0.756-0.756,1.172-1.761,1.172-2.828s-0.416-2.072-1.174-2.832
				L16.307,16.734z M23.428,29.441c-0.756,0.756-2.074,0.756-2.83,0L8.893,18.148c-0.567-0.566-0.879-1.32-0.879-2.121
				c0-0.802,0.312-1.555,0.867-2.109L20.599,2.586C20.976,2.208,21.478,2,22.014,2c0.533,0,1.035,0.208,1.414,0.586
				c0.377,0.378,0.586,0.88,0.586,1.414s-0.209,1.036-0.584,1.412l-8.537,8.494c-0.567,0.567-0.879,1.32-0.879,2.121
				c0,0.801,0.312,1.555,0.882,2.123l8.532,8.463c0.377,0.378,0.586,0.881,0.586,1.414C24.014,28.562,23.805,29.062,23.428,29.441z"
				/>
		</g>
	</g>
</g>
<g>
</g>
<g>
</g>
<g>
</g>
<g>
</g>
<g>
</g>
<g>
</g>
<g>
</g>
<g>
</g>
<g>
</g>
<g>
</g>
<g>
</g>
<g>
</g>
<g>
</g>
<g>
</g>
<g>
</g>
</svg>
